<svg width="20" height="20" viewBox="0 0 20 20" fill="none" xmlns="http://www.w3.org/2000/svg">
<path fill-rule="evenodd" clip-rule="evenodd" d="M5 6.99884C5.00022 6.06118 5.26409 5.14247 5.7615 4.34762C6.25891 3.55277 6.9698 2.9138 7.81301 2.50366C8.65621 2.09353 9.59776 1.92877 10.5301 2.02819C11.4625 2.1276 12.3481 2.48719 13.0859 3.0659C13.8237 3.64461 14.3839 4.41911 14.7025 5.30097C15.0211 6.18284 15.0853 7.13652 14.8878 8.05315C14.6903 8.96977 14.2391 9.81239 13.5856 10.4848C12.932 11.1572 12.1026 11.6323 11.192 11.8558C11.3543 12.198 11.6103 12.487 11.9304 12.6893C12.2504 12.8917 12.6213 12.999 13 12.9988H14C14.7956 12.9988 15.5587 13.3149 16.1213 13.8775C16.6839 14.4401 17 15.2032 17 15.9988V17.9988H15V15.9988C15 15.7336 14.8946 15.4793 14.7071 15.2917C14.5196 15.1042 14.2652 14.9988 14 14.9988H13C12.4324 14.9995 11.8712 14.8791 11.3539 14.6456C10.8365 14.4121 10.375 14.0709 10 13.6448C9.62502 14.0709 9.16346 14.4121 8.64612 14.6456C8.12878 14.8791 7.56759 14.9995 7 14.9988H6C5.73478 14.9988 5.48043 15.1042 5.29289 15.2917C5.10536 15.4793 5 15.7336 5 15.9988V17.9988H3V15.9988C3 15.2032 3.31607 14.4401 3.87868 13.8775C4.44129 13.3149 5.20435 12.9988 6 12.9988H7C7.37866 12.999 7.74958 12.8917 8.06964 12.6893C8.3897 12.487 8.64575 12.198 8.808 11.8558C7.72151 11.5888 6.75592 10.9651 6.0656 10.0847C5.37528 9.20418 5.00009 8.11767 5 6.99884ZM10 9.99884C9.60603 9.99884 9.21593 9.92124 8.85195 9.77048C8.48797 9.61971 8.15726 9.39873 7.87868 9.12016C7.6001 8.84158 7.37913 8.51087 7.22836 8.14689C7.0776 7.78291 7 7.3928 7 6.99884C7 6.60487 7.0776 6.21476 7.22836 5.85079C7.37913 5.48681 7.6001 5.15609 7.87868 4.87752C8.15726 4.59894 8.48797 4.37796 8.85195 4.2272C9.21593 4.07644 9.60603 3.99884 10 3.99884C10.7956 3.99884 11.5587 4.31491 12.1213 4.87752C12.6839 5.44013 13 6.20319 13 6.99884C13 7.79449 12.6839 8.55755 12.1213 9.12016C11.5587 9.68277 10.7956 9.99884 10 9.99884Z" fill="#FF0000"/>
</svg>
